<svg width="100" height="100" viewBox="0 0 100 100" fill="none" xmlns="http://www.w3.org/2000/svg">
<circle cx="50" cy="50" r="50" fill="#E8D6F3"/>
<path d="M46.5 54.0757V65.6565H51.5V54.0757C51.5 52.7474 50.965 51.4444 50.035 50.505L45.035 45.4545L51.5 38.9242L56.5 43.9747C57.43 44.9141 58.72 45.4545 60.035 45.4545H69V40.404H60.035L50.7675 31.0429C50.5355 30.8082 50.26 30.622 49.9567 30.4949C49.6534 30.3679 49.3283 30.3025 49 30.3025C48.6716 30.3025 48.3465 30.3679 48.0432 30.4949C47.74 30.622 47.4644 30.8082 47.2325 31.0429L39 39.3586C38.055 40.3131 37.535 41.5808 37.535 42.9293C37.535 44.2777 38.055 45.5454 39 46.5L46.5 54.0757Z" fill="#8D34C1"/>
<path d="M59 32.8282C61.7614 32.8282 64 30.5671 64 27.7777C64 24.9884 61.7614 22.7272 59 22.7272C56.2386 22.7272 54 24.9884 54 27.7777C54 30.5671 56.2386 32.8282 59 32.8282Z" fill="#8D34C1"/>
<path d="M64 50.505C58.485 50.505 54 55.0353 54 60.606C54 66.1767 58.485 70.707 64 70.707C69.515 70.707 74 66.1767 74 60.606C74 55.0353 69.515 50.505 64 50.505ZM64 65.6565C61.2425 65.6565 59 63.3914 59 60.606C59 57.8207 61.2425 55.5555 64 55.5555C66.7575 55.5555 69 57.8207 69 60.606C69 63.3914 66.7575 65.6565 64 65.6565ZM34 70.707C39.515 70.707 44 66.1767 44 60.606C44 55.0353 39.515 50.505 34 50.505C28.485 50.505 24 55.0353 24 60.606C24 66.1767 28.485 70.707 34 70.707ZM34 55.5555C36.7575 55.5555 39 57.8207 39 60.606C39 63.3914 36.7575 65.6565 34 65.6565C31.2425 65.6565 29 63.3914 29 60.606C29 57.8207 31.2425 55.5555 34 55.5555Z" fill="#8D34C1"/>
</svg>
