<svg width="92" height="27" viewBox="0 0 92 27" fill="none" xmlns="http://www.w3.org/2000/svg">
<path d="M10.2871 16.666H3.69531V12.8691H10.2871C11.3652 12.8691 12.2383 12.6934 12.9062 12.3418C13.5859 11.9785 14.084 11.4863 14.4004 10.8652C14.7168 10.2324 14.875 9.51172 14.875 8.70312C14.875 7.91797 14.7168 7.18555 14.4004 6.50586C14.084 5.82617 13.5859 5.27539 12.9062 4.85352C12.2383 4.43164 11.3652 4.2207 10.2871 4.2207H5.27734V26H0.443359V0.40625H10.2871C12.2793 0.40625 13.9785 0.763672 15.3848 1.47852C16.8027 2.18164 17.8809 3.16016 18.6191 4.41406C19.3691 5.65625 19.7441 7.07422 19.7441 8.66797C19.7441 10.3203 19.3691 11.7441 18.6191 12.9395C17.8809 14.1348 16.8027 15.0547 15.3848 15.6992C13.9785 16.3438 12.2793 16.666 10.2871 16.666ZM22.1172 16.6836V16.3145C22.1172 14.9199 22.3164 13.6367 22.7148 12.4648C23.1133 11.2812 23.6934 10.2559 24.4551 9.38867C25.2168 8.52148 26.1484 7.84766 27.25 7.36719C28.3516 6.875 29.6055 6.62891 31.0117 6.62891C32.4414 6.62891 33.707 6.875 34.8086 7.36719C35.9219 7.84766 36.8594 8.52148 37.6211 9.38867C38.3828 10.2559 38.9629 11.2812 39.3613 12.4648C39.7598 13.6367 39.959 14.9199 39.959 16.3145V16.6836C39.959 18.0664 39.7598 19.3496 39.3613 20.5332C38.9629 21.7051 38.3828 22.7305 37.6211 23.6094C36.8594 24.4766 35.9277 25.1504 34.8262 25.6309C33.7246 26.1113 32.4648 26.3516 31.0469 26.3516C29.6406 26.3516 28.3809 26.1113 27.2676 25.6309C26.1543 25.1504 25.2168 24.4766 24.4551 23.6094C23.6934 22.7305 23.1133 21.7051 22.7148 20.5332C22.3164 19.3496 22.1172 18.0664 22.1172 16.6836ZM26.7578 16.3145V16.6836C26.7578 17.5156 26.8398 18.2949 27.0039 19.0215C27.168 19.748 27.4199 20.3867 27.7598 20.9375C28.0996 21.4883 28.5391 21.9219 29.0781 22.2383C29.6289 22.543 30.2852 22.6953 31.0469 22.6953C31.7969 22.6953 32.4414 22.543 32.9805 22.2383C33.5195 21.9219 33.959 21.4883 34.2988 20.9375C34.6504 20.3867 34.9082 19.748 35.0723 19.0215C35.2363 18.2949 35.3184 17.5156 35.3184 16.6836V16.3145C35.3184 15.4941 35.2363 14.7266 35.0723 14.0117C34.9082 13.2852 34.6504 12.6465 34.2988 12.0957C33.959 11.5332 33.5137 11.0938 32.9629 10.7773C32.4238 10.4492 31.7734 10.2852 31.0117 10.2852C30.2617 10.2852 29.6172 10.4492 29.0781 10.7773C28.5391 11.0938 28.0996 11.5332 27.7598 12.0957C27.4199 12.6465 27.168 13.2852 27.0039 14.0117C26.8398 14.7266 26.7578 15.4941 26.7578 16.3145ZM47.957 10.8828V26H43.3164V6.98047H47.6934L47.957 10.8828ZM47.2715 15.8047H45.8477C45.8477 14.4805 46.0059 13.2617 46.3223 12.1484C46.6504 11.0352 47.1309 10.0684 47.7637 9.24805C48.3965 8.41602 49.1758 7.77148 50.1016 7.31445C51.0391 6.85742 52.123 6.62891 53.3535 6.62891C54.209 6.62891 54.9941 6.75781 55.709 7.01562C56.4238 7.26172 57.0391 7.6543 57.5547 8.19336C58.082 8.7207 58.4863 9.41211 58.7676 10.2676C59.0488 11.1113 59.1895 12.125 59.1895 13.3086V26H54.5488V13.7832C54.5488 12.8926 54.4199 12.1953 54.1621 11.6914C53.916 11.1875 53.5586 10.8359 53.0898 10.6367C52.6211 10.4258 52.0586 10.3203 51.4023 10.3203C50.6758 10.3203 50.0488 10.4668 49.5215 10.7598C49.0059 11.041 48.5781 11.4336 48.2383 11.9375C47.9102 12.4414 47.6641 13.0215 47.5 13.6777C47.3477 14.334 47.2715 15.043 47.2715 15.8047ZM58.8379 14.9434L56.9219 15.2949C56.9336 14.0996 57.0977 12.9805 57.4141 11.9375C57.7305 10.8828 58.1934 9.96289 58.8027 9.17773C59.4238 8.38086 60.1914 7.75977 61.1055 7.31445C62.0312 6.85742 63.0977 6.62891 64.3047 6.62891C65.2422 6.62891 66.0859 6.76367 66.8359 7.0332C67.5977 7.29102 68.248 7.70703 68.7871 8.28125C69.3262 8.84375 69.7363 9.57617 70.0176 10.4785C70.3105 11.3809 70.457 12.4824 70.457 13.7832V26H65.7812V13.7656C65.7812 12.8398 65.6523 12.1309 65.3945 11.6387C65.1484 11.1465 64.791 10.8066 64.3223 10.6191C63.8535 10.4199 63.3027 10.3203 62.6699 10.3203C62.0254 10.3203 61.4629 10.4434 60.9824 10.6895C60.5137 10.9238 60.1152 11.252 59.7871 11.6738C59.4707 12.0957 59.2305 12.5879 59.0664 13.1504C58.9141 13.7012 58.8379 14.2988 58.8379 14.9434ZM73.7969 16.6836V16.3145C73.7969 14.9199 73.9961 13.6367 74.3945 12.4648C74.793 11.2812 75.373 10.2559 76.1348 9.38867C76.8965 8.52148 77.8281 7.84766 78.9297 7.36719C80.0312 6.875 81.2852 6.62891 82.6914 6.62891C84.1211 6.62891 85.3867 6.875 86.4883 7.36719C87.6016 7.84766 88.5391 8.52148 89.3008 9.38867C90.0625 10.2559 90.6426 11.2812 91.041 12.4648C91.4395 13.6367 91.6387 14.9199 91.6387 16.3145V16.6836C91.6387 18.0664 91.4395 19.3496 91.041 20.5332C90.6426 21.7051 90.0625 22.7305 89.3008 23.6094C88.5391 24.4766 87.6074 25.1504 86.5059 25.6309C85.4043 26.1113 84.1445 26.3516 82.7266 26.3516C81.3203 26.3516 80.0605 26.1113 78.9473 25.6309C77.834 25.1504 76.8965 24.4766 76.1348 23.6094C75.373 22.7305 74.793 21.7051 74.3945 20.5332C73.9961 19.3496 73.7969 18.0664 73.7969 16.6836ZM78.4375 16.3145V16.6836C78.4375 17.5156 78.5195 18.2949 78.6836 19.0215C78.8477 19.748 79.0996 20.3867 79.4395 20.9375C79.7793 21.4883 80.2188 21.9219 80.7578 22.2383C81.3086 22.543 81.9648 22.6953 82.7266 22.6953C83.4766 22.6953 84.1211 22.543 84.6602 22.2383C85.1992 21.9219 85.6387 21.4883 85.9785 20.9375C86.3301 20.3867 86.5879 19.748 86.752 19.0215C86.916 18.2949 86.998 17.5156 86.998 16.6836V16.3145C86.998 15.4941 86.916 14.7266 86.752 14.0117C86.5879 13.2852 86.3301 12.6465 85.9785 12.0957C85.6387 11.5332 85.1934 11.0938 84.6426 10.7773C84.1035 10.4492 83.4531 10.2852 82.6914 10.2852C81.9414 10.2852 81.2969 10.4492 80.7578 10.7773C80.2188 11.0938 79.7793 11.5332 79.4395 12.0957C79.0996 12.6465 78.8477 13.2852 78.6836 14.0117C78.5195 14.7266 78.4375 15.4941 78.4375 16.3145Z" fill="black"/>
</svg>
