<svg width="24" height="24" viewBox="0 0 24 24" fill="none" xmlns="http://www.w3.org/2000/svg">
<path d="M3.691 6.292C5.094 4.771 7.217 4 10 4H11V6.819L10.196 6.98C8.826 7.254 7.873 7.793 7.363 8.584C7.09689 9.01013 6.94597 9.49804 6.925 10H10C10.2652 10 10.5196 10.1054 10.7071 10.2929C10.8946 10.4804 11 10.7348 11 11V18C11 19.103 10.103 20 9 20H3C2.73478 20 2.48043 19.8946 2.29289 19.7071C2.10536 19.5196 2 19.2652 2 19V14L2.003 11.081C1.994 10.97 1.804 8.34 3.691 6.292ZM20 20H14C13.7348 20 13.4804 19.8946 13.2929 19.7071C13.1054 19.5196 13 19.2652 13 19V14L13.003 11.081C12.994 10.97 12.804 8.34 14.691 6.292C16.094 4.771 18.217 4 21 4H22V6.819L21.196 6.98C19.826 7.254 18.873 7.793 18.363 8.584C18.0969 9.01013 17.946 9.49804 17.925 10H21C21.2652 10 21.5196 10.1054 21.7071 10.2929C21.8946 10.4804 22 10.7348 22 11V18C22 19.103 21.103 20 20 20Z" fill="#8D34C1"/>
</svg>
