<svg width="100" height="100" viewBox="0 0 100 100" fill="none" xmlns="http://www.w3.org/2000/svg">
<circle cx="50" cy="50" r="50" fill="#CFE1F8"/>
<path d="M50 25C36.215 25 25 36.215 25 50C25 63.785 36.215 75 50 75C63.785 75 75 63.785 75 50C75 36.215 63.785 25 50 25ZM50 70C38.9725 70 30 61.0275 30 50C30 38.9725 38.9725 30 50 30C61.0275 30 70 38.9725 70 50C70 61.0275 61.0275 70 50 70Z" fill="#8D34C1"/>
<path d="M52.5 37.5H47.5V51.035L55.7325 59.2675L59.2675 55.7325L52.5 48.965V37.5Z" fill="#8D34C1"/>
</svg>
