<svg width="100" height="100" viewBox="0 0 100 100" fill="none" xmlns="http://www.w3.org/2000/svg">
<circle cx="50" cy="50" r="50" fill="#FEEECF"/>
<path d="M70 35H62.5V30C62.5 27.2425 60.2575 25 57.5 25H42.5C39.7425 25 37.5 27.2425 37.5 30V35H30C27.2425 35 25 37.2425 25 40V67.5C25 70.2575 27.2425 72.5 30 72.5H70C72.7575 72.5 75 70.2575 75 67.5V40C75 37.2425 72.7575 35 70 35ZM57.5 30V35H42.5V30H57.5ZM40 40H70V47.5H30V40H40ZM30 67.5V52.5H45V57.5H55V52.5H70L70.0025 67.5H30Z" fill="#8D34C1"/>
</svg>
